PathFileType	4	(X/Y/Z)	Run_200 02
DataRate	CameraRate	NumFrames	NumMarkers	Units	OrigDataRate	OrigDataStartFrame	OrigNumFrames
100	100	4	42	mm	100	265	128
Frame#	Time	LPSI			RPSI			RTH1			RTH2			RTH3			LTH1			LTH2			LTH3			RTB1			RTB2			RTB3			LTB1			LTB2			LTB3			RCAL			RTOE			RMT5			LCAL			LTOE			LMT5			LACR			RACR			CLAV			C7			RUA1			RUA2			RUA3			RLEL			RMEL			LUA1			LUA2			LUA3			LLEL			LMEL			RFAsuperior			RFAradius			RFAulna			LFAsuperior			LFAradius			LFAulna			RASI			LASI		
		X1	Y1	Z1	X2	Y2	Z2	X3	Y3	Z3	X4	Y4	Z4	X5	Y5	Z5	X6	Y6	Z6	X7	Y7	Z7	X8	Y8	Z8	X9	Y9	Z9	X10	Y10	Z10	X11	Y11	Z11	X12	Y12	Z12	X13	Y13	Z13	X14	Y14	Z14	X15	Y15	Z15	X16	Y16	Z16	X17	Y17	Z17	X18	Y18	Z18	X19	Y19	Z19	X20	Y20	Z20	X21	Y21	Z21	X22	Y22	Z22	X23	Y23	Z23	X24	Y24	Z24	X25	Y25	Z25	X26	Y26	Z26	X27	Y27	Z27	X28	Y28	Z28	X29	Y29	Z29	X30	Y30	Z30	X31	Y31	Z31	X32	Y32	Z32	X33	Y33	Z33	X34	Y34	Z34	X35	Y35	Z35	X36	Y36	Z36	X37	Y37	Z37	X38	Y38	Z38	X39	Y39	Z39	X40	Y40	Z40	X41	Y41	Z41	X42	Y42	Z42	

265	  2.650000	615.336841	1089.245969	-521.251178	619.859337	1087.263174	-436.078982	742.927638	875.145857	-302.098640	789.218188	734.009296	-320.637351	704.393673	635.931791	-323.506433	748.418413	911.212320	-674.447613	840.216539	812.337619	-656.836735	789.514441	660.927135	-651.374621	633.612575	403.801158	-369.239554	526.386988	385.961386	-318.502083	462.360120	303.369638	-374.229342	862.599946	434.510969	-593.517748	796.662069	361.905723	-658.693744	824.043550	231.167731	-584.138477	289.765053	339.456889	-397.576767	387.015112	128.621458	-380.447054	340.938390	144.004851	-297.032829	680.793581	 96.944273	-564.258999	913.778710	 75.647450	-571.012817	877.791489	 45.427706	-651.223323	750.435199	1550.407321	-653.931800	747.338494	1531.794250	-319.081433	827.606919	1500.727733	-466.679672	690.020191	1572.965523	-500.481277	694.612781	1421.272070	-235.534271	615.924739	1352.484136	-256.166879	657.000252	1309.984031	-205.294735	647.025428	1212.319687	-186.586272	604.433013	1197.427435	-257.845064	676.956475	1487.778790	-756.895064	593.257205	1435.309747	-755.168930	622.948109	1401.783611	-824.097726	594.804056	1324.875016	-870.444112	531.729860	1309.932499	-825.371248	716.342500	1177.855001	-214.737619	883.762189	1211.029609	-332.222962	868.217494	1141.315676	-326.530121	669.262612	1241.408953	-814.568908	766.047248	1216.903869	-690.742740	727.804895	1162.625547	-705.069773	806.185641	1015.069732	-362.184135	796.696476	1029.517301	-611.756631	
266	  2.660000	612.528090	1079.566192	-523.000666	618.644627	1076.556875	-438.524656	746.319292	867.511718	-303.245015	796.000473	728.152832	-320.772110	714.457042	627.479671	-323.686300	747.578564	902.809071	-676.066830	838.555215	804.077100	-656.938711	789.133079	653.479702	-652.540434	643.973621	398.966170	-369.264481	535.656040	384.770348	-319.473201	469.904538	303.882872	-375.395469	857.465359	426.595914	-591.245276	789.883247	355.822838	-657.043170	808.914009	225.008345	-580.149839	297.287880	343.408586	-400.402761	392.937037	131.821692	-380.822740	346.416069	148.172746	-298.327567	659.241224	 92.719994	-562.084232	893.787515	 74.401523	-570.281063	857.450072	 45.909691	-651.184017	750.455495	1540.407813	-657.335309	743.844194	1523.850502	-320.466532	827.052797	1492.107111	-467.181917	688.455776	1564.142494	-502.868218	690.126870	1412.784112	-238.006738	610.895984	1344.525536	-259.176204	651.332100	1301.813444	-207.752294	640.027702	1205.178223	-188.915351	598.071656	1190.754898	-260.343367	679.730724	1473.698246	-761.073016	597.063655	1419.979953	-760.590409	629.155252	1386.036935	-828.308641	603.688126	1308.889962	-874.401564	540.188797	1292.239424	-830.487814	708.586368	1168.194032	-215.782050	878.311856	1194.756438	-331.785200	859.837893	1125.974535	-325.292517	679.016621	1227.821177	-815.756478	773.739125	1207.899899	-689.386484	736.982879	1152.406868	-703.840920	805.721272	1007.761334	-364.404515	795.998098	1021.712101	-614.363673	
267	  2.670000	609.479411	1071.662951	-524.223311	616.718903	1066.870578	-440.372136	749.465300	860.424640	-304.321528	802.539099	723.067942	-320.577732	724.456413	619.615889	-323.829099	745.209173	895.311774	-677.826387	835.807111	795.574358	-658.853377	786.867482	646.319317	-652.989757	655.266674	394.571977	-369.407044	546.083446	383.415708	-320.452292	479.010655	303.981966	-376.663086	851.616103	419.668232	-588.886493	783.293228	350.270529	-655.583328	794.727747	220.025265	-576.978842	306.263209	346.251538	-403.376280	401.375913	134.176289	-380.712649	354.267654	151.970117	-299.024040	639.505229	 91.092105	-559.302136	875.134231	 73.147248	-569.993070	837.848345	 45.737358	-650.726099	750.315177	1530.502141	-660.712788	740.260197	1516.119751	-321.863861	826.591324	1483.327241	-467.312151	686.806174	1555.421612	-505.454501	685.223364	1404.381252	-240.771255	605.642502	1336.590465	-262.330941	645.397254	1293.781109	-210.416725	632.703557	1198.151915	-191.299480	591.470852	1184.167606	-262.956285	683.084746	1459.085535	-765.413795	601.527403	1403.638221	-765.881405	636.304348	1369.864233	-832.367520	613.754994	1292.573545	-878.028469	549.828802	1274.173360	-835.280057	700.215782	1158.081307	-216.825376	872.584139	1178.072087	-330.912481	851.295619	1110.192936	-323.574977	689.431222	1213.859445	-816.303125	781.859721	1198.530178	-687.607100	746.810298	1141.908092	-702.304531	804.857642	1000.202354	-366.483130	794.795318	1013.570328	-616.735863	
268	  2.680000	607.161417	1066.213645	-524.945553	614.123032	1059.247096	-441.352291	752.157698	854.225863	-305.345318	808.744012	718.941328	-320.146340	734.422593	612.929615	-323.838777	741.857082	889.318387	-679.292243	832.250866	787.951013	-661.290405	783.092830	639.967204	-652.987192	667.431692	390.815637	-369.825907	557.708458	381.835292	-321.491973	489.567799	303.786370	-378.103666	844.885985	413.316276	-587.015179	775.733553	345.431079	-654.517209	780.779771	215.924728	-574.705097	316.402567	347.888350	-406.133166	412.261292	135.985131	-380.671548	364.847374	155.146351	-299.363513	620.690741	 91.335526	-556.196515	856.757882	 71.675333	-569.821401	818.303954	 45.493746	-650.294551	750.175097	1521.073131	-664.085979	736.921394	1508.976804	-323.513892	825.975249	1475.031394	-467.523224	685.238329	1547.553105	-508.448712	680.227043	1397.013541	-243.681912	600.440881	1329.682124	-265.781288	639.255311	1286.766471	-213.268344	625.145486	1191.722664	-193.850002	584.684164	1178.130651	-265.688984	686.917609	1444.831129	-769.490868	606.462648	1386.853295	-770.822259	644.353844	1353.971934	-836.010296	624.985763	1276.369163	-880.992741	560.646847	1256.268178	-839.385700	691.496176	1148.487003	-217.893204	866.448935	1161.698895	-329.588564	842.485493	1094.602461	-321.612708	700.687827	1200.057347	-816.147739	790.574314	1189.037483	-685.478713	757.314041	1131.534410	-700.420524	803.605028	992.698970	-367.906894	793.120370	1005.366627	-618.379719	
